<svg xmlns="http://www.w3.org/2000/svg" viewBox="0 0 24 24" width="32" height="32" color="#878787" fill="none">
    <path fill-rule="evenodd" clip-rule="evenodd" d="M19.2006 5.85425L19.5004 6.25391H4.50078L4.80058 5.85425C5.67058 4.69425 6.04059 4.22414 6.50059 3.99414C6.97057 3.75415 7.65054 3.75415 9.00043 3.75415H9.00059H15.0006H15.0008C16.3506 3.75415 17.0306 3.75415 17.5106 3.99414C17.9706 4.22414 18.3406 4.69425 19.2006 5.85425ZM2.40062 6.54419C2.29596 6.68578 2.24436 6.85771 2.25049 7.02729V13.0039C2.25049 16.9839 2.2505 18.974 3.6405 20.364C5.0304 21.7539 7.03018 21.7539 10.9996 21.7539H11.0005H13.0005H13.0014C16.9808 21.7539 18.9706 21.7539 20.3605 20.364C21.7505 18.974 21.7505 16.9839 21.7505 13.0039V7.02821C21.7579 6.85743 21.7063 6.68726 21.6006 6.54419L20.4006 4.94409L20.3681 4.90061C19.4685 3.69779 18.9612 3.01954 18.1806 2.64404C17.3908 2.24414 16.541 2.24414 15.0017 2.24414H15.0006H9.00059H8.99947C7.46018 2.24414 6.61042 2.24414 5.83061 2.64404C5.03061 3.03404 4.52057 3.71409 3.60057 4.94409L2.40062 6.54419ZM3.75049 13.0039V7.75415H20.2505V13.0039C20.2505 16.5639 20.2505 18.354 19.3005 19.304C18.3505 20.2539 16.5607 20.2539 13.001 20.2539H13.0005H11.0005H10.9999C7.4403 20.2539 5.65045 20.2539 4.7005 19.304C3.7505 18.354 3.75049 16.5639 3.75049 13.0039ZM9.06041 15.7537C10.2104 17.2137 11.0904 18.2537 12.0004 18.2537C12.9104 18.2537 13.7904 17.2137 14.9404 15.7537C15.0134 15.6631 15.0822 15.576 15.1467 15.4942C15.303 15.2962 15.4342 15.1299 15.5404 15.0237C15.8304 14.7237 15.8204 14.2536 15.5204 13.9636C15.2204 13.6836 14.7504 13.6836 14.4604 13.9836C14.2904 14.1636 14.0404 14.4737 13.7604 14.8337C13.5304 15.1337 13.1304 15.6437 12.7504 16.0637V10.5137C12.7504 10.1037 12.4104 9.76367 12.0004 9.76367C11.5904 9.76367 11.2504 10.1037 11.2504 10.5137V16.0637C10.9038 15.6715 10.5406 15.2128 10.3049 14.9152C10.2822 14.8865 10.2606 14.8592 10.2404 14.8337C10.2196 14.8072 10.199 14.7809 10.1787 14.755C9.91629 14.4199 9.69818 14.1414 9.54039 13.9836C9.25039 13.6836 8.7804 13.6736 8.48039 13.9636C8.18039 14.2536 8.17044 14.7237 8.46044 15.0237C8.61044 15.1737 8.82041 15.4437 9.06041 15.7537Z" fill="currentColor" />
</svg>